# xmcd
#
# Track frame offsets:
#	150
#	22898
#	47777
#	62174
#	77790
#	95998
#	113623
#	138360
#	146463
#	165673
#	186711
#	207113
#	222864
#	237884
#
# Disc length: 3519 seconds
# Revision: 0
# Processed by: cddbd v1.5.2PL0 Copyright (c) Steve Scherf et al.
# Submitted via: dBpowerAMP V12.0
#
DISCID=c90dbd0e
DTITLE=Hale Dwoskin - Practical Freedom CD 03 - Your Ideal Relationship
DYEAR=2005
DGENRE=Speech
TTITLE0=Introduction
TTITLE1=Resistance to Others - Dislikes about Others
TTITLE2=Judging
TTITLE3=Mistrust
TTITLE4=Being Misunderstood - Misunderstanding Others
TTITLE5=Being Passive - Being Aggressive
TTITLE6=Being Closed Off - Take a Break
TTITLE7=Welcome Back
TTITLE8=Seeing and Being Seen
TTITLE9=Hearing and Being Heard
TTITLE10=Touching and Being Touched
TTITLE11=Being Dependent
TTITLE12=Being Taken for Granted
TTITLE13=Being Hated and Loved - Conclusion
EXTD=
EXTT0=
EXTT1=
EXTT2=
EXTT3=
EXTT4=
EXTT5=
EXTT6=
EXTT7=
EXTT8=
EXTT9=
EXTT10=
EXTT11=
EXTT12=
EXTT13=
PLAYORDER=
